<?xml version="1.0" encoding="UTF-8"?>
<svg xmlns="http://www.w3.org/2000/svg" xmlns:xlink="http://www.w3.org/1999/xlink" width="30pt" height="30pt" viewBox="0 0 30 30" version="1.1">
<g id="surface1">
<path style=" stroke:none;fill-rule:nonzero;fill:rgb(0%,0%,0%);fill-opacity:1;" d="M 27.269531 3.761719 L 2.820312 3.761719 C 1.261719 3.761719 0 5.023438 0 6.582031 L 0 23.511719 C 0 25.070312 1.261719 26.332031 2.820312 26.332031 L 27.269531 26.332031 C 28.832031 26.332031 30.09375 25.070312 30.09375 23.511719 L 30.09375 6.582031 C 30.09375 5.023438 28.832031 3.761719 27.269531 3.761719 Z M 26.917969 23.511719 L 3.175781 23.511719 C 2.980469 23.511719 2.820312 23.351562 2.820312 23.15625 L 2.820312 6.933594 C 2.820312 6.738281 2.980469 6.582031 3.175781 6.582031 L 26.917969 6.582031 C 27.113281 6.582031 27.269531 6.738281 27.269531 6.933594 L 27.269531 23.15625 C 27.269531 23.351562 27.113281 23.511719 26.917969 23.511719 Z M 7.523438 8.933594 C 6.226562 8.933594 5.171875 9.984375 5.171875 11.285156 C 5.171875 12.582031 6.226562 13.636719 7.523438 13.636719 C 8.820312 13.636719 9.875 12.582031 9.875 11.285156 C 9.875 9.984375 8.820312 8.933594 7.523438 8.933594 Z M 5.640625 20.6875 L 24.449219 20.6875 L 24.449219 15.988281 L 19.308594 10.84375 C 19.03125 10.566406 18.585938 10.566406 18.308594 10.84375 L 11.285156 17.867188 L 8.960938 15.546875 C 8.6875 15.269531 8.242188 15.269531 7.964844 15.546875 L 5.640625 17.867188 Z M 5.640625 20.6875 "/>
</g>
</svg>
