<?xml version="1.0" encoding="UTF-8"?>
<svg xmlns="http://www.w3.org/2000/svg" xmlns:xlink="http://www.w3.org/1999/xlink" width="30pt" height="30pt" viewBox="0 0 30 30" version="1.1">
<g id="surface1">
<path style=" stroke:none;fill-rule:nonzero;fill:rgb(0%,0%,0%);fill-opacity:1;" d="M 28.59375 3.75 L 28.125 3.75 L 28.125 4.921875 C 28.125 5.308594 27.808594 5.625 27.421875 5.625 L 25.078125 5.625 C 24.691406 5.625 24.375 5.308594 24.375 4.921875 L 24.375 3.75 L 5.625 3.75 L 5.625 4.921875 C 5.625 5.308594 5.308594 5.625 4.921875 5.625 L 2.578125 5.625 C 2.191406 5.625 1.875 5.308594 1.875 4.921875 L 1.875 3.75 L 1.40625 3.75 C 0.625 3.75 0 4.375 0 5.15625 L 0 24.84375 C 0 25.625 0.625 26.25 1.40625 26.25 L 1.875 26.25 L 1.875 25.078125 C 1.875 24.691406 2.191406 24.375 2.578125 24.375 L 4.921875 24.375 C 5.308594 24.375 5.625 24.691406 5.625 25.078125 L 5.625 26.25 L 24.375 26.25 L 24.375 25.078125 C 24.375 24.691406 24.691406 24.375 25.078125 24.375 L 27.421875 24.375 C 27.808594 24.375 28.125 24.691406 28.125 25.078125 L 28.125 26.25 L 28.59375 26.25 C 29.375 26.25 30 25.625 30 24.84375 L 30 5.15625 C 30 4.375 29.375 3.75 28.59375 3.75 Z M 5.625 21.796875 C 5.625 22.183594 5.308594 22.5 4.921875 22.5 L 2.578125 22.5 C 2.191406 22.5 1.875 22.183594 1.875 21.796875 L 1.875 19.453125 C 1.875 19.066406 2.191406 18.75 2.578125 18.75 L 4.921875 18.75 C 5.308594 18.75 5.625 19.066406 5.625 19.453125 Z M 5.625 16.171875 C 5.625 16.558594 5.308594 16.875 4.921875 16.875 L 2.578125 16.875 C 2.191406 16.875 1.875 16.558594 1.875 16.171875 L 1.875 13.828125 C 1.875 13.441406 2.191406 13.125 2.578125 13.125 L 4.921875 13.125 C 5.308594 13.125 5.625 13.441406 5.625 13.828125 Z M 5.625 10.546875 C 5.625 10.933594 5.308594 11.25 4.921875 11.25 L 2.578125 11.25 C 2.191406 11.25 1.875 10.933594 1.875 10.546875 L 1.875 8.203125 C 1.875 7.816406 2.191406 7.5 2.578125 7.5 L 4.921875 7.5 C 5.308594 7.5 5.625 7.816406 5.625 8.203125 Z M 21.5625 22.734375 C 21.5625 23.121094 21.246094 23.4375 20.859375 23.4375 L 9.140625 23.4375 C 8.753906 23.4375 8.4375 23.121094 8.4375 22.734375 L 8.4375 17.109375 C 8.4375 16.722656 8.753906 16.40625 9.140625 16.40625 L 20.859375 16.40625 C 21.246094 16.40625 21.5625 16.722656 21.5625 17.109375 Z M 21.5625 12.890625 C 21.5625 13.277344 21.246094 13.59375 20.859375 13.59375 L 9.140625 13.59375 C 8.753906 13.59375 8.4375 13.277344 8.4375 12.890625 L 8.4375 7.265625 C 8.4375 6.878906 8.753906 6.5625 9.140625 6.5625 L 20.859375 6.5625 C 21.246094 6.5625 21.5625 6.878906 21.5625 7.265625 Z M 28.125 21.796875 C 28.125 22.183594 27.808594 22.5 27.421875 22.5 L 25.078125 22.5 C 24.691406 22.5 24.375 22.183594 24.375 21.796875 L 24.375 19.453125 C 24.375 19.066406 24.691406 18.75 25.078125 18.75 L 27.421875 18.75 C 27.808594 18.75 28.125 19.066406 28.125 19.453125 Z M 28.125 16.171875 C 28.125 16.558594 27.808594 16.875 27.421875 16.875 L 25.078125 16.875 C 24.691406 16.875 24.375 16.558594 24.375 16.171875 L 24.375 13.828125 C 24.375 13.441406 24.691406 13.125 25.078125 13.125 L 27.421875 13.125 C 27.808594 13.125 28.125 13.441406 28.125 13.828125 Z M 28.125 10.546875 C 28.125 10.933594 27.808594 11.25 27.421875 11.25 L 25.078125 11.25 C 24.691406 11.25 24.375 10.933594 24.375 10.546875 L 24.375 8.203125 C 24.375 7.816406 24.691406 7.5 25.078125 7.5 L 27.421875 7.5 C 27.808594 7.5 28.125 7.816406 28.125 8.203125 Z M 28.125 10.546875 "/>
</g>
</svg>
